<svg class="icon" viewBox="0 0 1024 1024" version="1.1" xmlns="http://www.w3.org/2000/svg" p-id="8420"
     width="48" height="48" xmlns:xlink="http://www.w3.org/1999/xlink">
    <path d="M278 64c30.928 0 56 25.072 56 56v784c0 30.928-25.072 56-56 56H118c-30.928 0-56-25.072-56-56V120c0-30.928 25.072-56 56-56h160z m626 0c30.928 0 56 25.072 56 56v784c0 30.928-25.072 56-56 56H744c-30.928 0-56-25.072-56-56V120c0-30.928 25.072-56 56-56h160z m-312 0c30.928 0 56 25.072 56 56v784c0 30.928-25.072 56-56 56H432c-30.928 0-56-25.072-56-56V120c0-30.928 25.072-56 56-56h160z m-330 72H134v752h128V136z m626 0H760v752h128V136z m-312 0H448v752h128V136z"
          fill="#0066FF"></path>
    <path d="M512 563c24 0 36 12 36 36v211c0 24-12 36-36 36s-36-12-36-36V599c0-24 12-36 36-36z" fill="#99C2FF"
    ></path>
    <path d="M320.5 255.5c0 24-12 36-36 36h-185c-24 0-36-12-36-36s12-36 36-36h185c24 0 36 12 36 36z" fill="#0066FF"
    ></path>
    <path d="M824 563c24 0 36 12 36 36v211c0 24-12 36-36 36s-36-12-36-36V599c0-24 12-36 36-36z" fill="#99C2FF"
    ></path>
</svg>